<?xml version="1.0" encoding="iso-8859-1"?>
<!-- Generator: Adobe Illustrator 19.0.0, SVG Export Plug-In . SVG Version: 6.00 Build 0)  -->
<svg version="1.1" id="Layer_1" xmlns="http://www.w3.org/2000/svg" xmlns:xlink="http://www.w3.org/1999/xlink" x="0px" y="0px"
	 viewBox="0 0 455.768 455.768" style="enable-background:new 0 0 455.768 455.768;" xml:space="preserve">
<g id="XMLID_57_">
	<g>
		<path d="M425.769,356.634v-0.001c0,18.14-12.947,33.309-30.084,36.761c-1.75-97.386-34.486-186.862-92.65-252.714
			c-30.366-34.379-66.562-61.232-107.582-79.813C152.627,41.469,105.63,31.633,55.769,31.633c-6.797,0-13.675,0.188-20.442,0.557
			L0,34.118l25.946,24.051c50.87,47.155,59.822,104.793,59.822,208.465c0,40.822-17.477,103.988-41.44,113.822
			c-5.345-6.483-8.56-14.783-8.56-23.822h-30c0,37.22,30.28,67.5,67.5,67.5c21.188,0,40.115-9.82,52.5-25.139
			c12.385,15.318,31.313,25.139,52.5,25.139s40.115-9.82,52.5-25.139c12.385,15.318,31.312,25.139,52.5,25.139
			s40.115-9.82,52.5-25.139c12.385,15.318,31.313,25.139,52.5,25.139c37.22,0,67.5-30.28,67.5-67.5H425.769z M350.769,356.633h-30
			c0,20.678-16.822,37.5-37.5,37.5c-20.678,0-37.5-16.822-37.5-37.5h-30c0,20.678-16.822,37.5-37.5,37.5
			c-20.678,0-37.5-16.822-37.5-37.5h-30c0,19.895-15.573,36.211-35.168,37.42c8.887-9.37,17.607-23.387,25.061-44.138
			c11.15-31.05,15.107-64.27,15.107-83.282c0-52.264-1.926-94.664-11.326-131.726c-7.114-28.047-18.304-51.841-34.506-72.976
			c167.674,7.119,289.182,140.506,295.551,324.46C356.548,379.532,350.769,368.747,350.769,356.633z"/>
	</g>
</g>
<g>
</g>
<g>
</g>
<g>
</g>
<g>
</g>
<g>
</g>
<g>
</g>
<g>
</g>
<g>
</g>
<g>
</g>
<g>
</g>
<g>
</g>
<g>
</g>
<g>
</g>
<g>
</g>
<g>
</g>
</svg>
